# xmcd
#
# Track frame offsets:
#  150
#  21038
#  37651
#  55567
#  70123
#  87793
#  106384
#  125714
#  145653
#  159917
#  170521
#  188611
#  207624
#  229601
#  245334
#  260569
#  276915
#  289543
#  302130
#  317021
#
# Disc length: 4452 seconds
#
# Revision: 0
# Processed by: cddbd v1.4PL0 Copyright (c) Steve Scherf et al.
# Submitted via: AltoMP3_Maker 3.0
#
DISCID=0d116214
DTITLE=任贤齐等 - 伤心雨
DYEAR=1900
DGENRE=
TTITLE0=珍惜
TTITLE1=酒醉的探戈2001
TTITLE2=冷酷到底
TTITLE3=我要的幸福
TTITLE4=盛夏的果实
TTITLE5=好想好好爱你
TTITLE6=男人的眼泪
TTITLE7=海浪
TTITLE8=星语心愿
TTITLE9=一个人的精彩
TTITLE10=太委屈
TTITLE11=爱我你怕了吗
TTITLE12=下沙
TTITLE13=爱恨缠绵
TTITLE14=那么骄傲
TTITLE15=出'
TTITLE16=永不妥协
TTITLE17=你能让我上天入地
TTITLE18=伤心1999
TTITLE19=我不后悔
EXTD=
EXTT0=
EXTT1=
EXTT2=
EXTT3=
EXTT4=
EXTT5=
EXTT6=
EXTT7=
EXTT8=
EXTT9=
EXTT10=
EXTT11=
EXTT12=
EXTT13=
EXTT14=
EXTT15=
EXTT16=
EXTT17=
EXTT18=
EXTT19=
PLAYORDER=
